<?xml version="1.0" encoding="UTF-8"?> <!-- Generator: Adobe Illustrator 24.3.0, SVG Export Plug-In . SVG Version: 6.00 Build 0) --> <svg xmlns="http://www.w3.org/2000/svg" xmlns:xlink="http://www.w3.org/1999/xlink" version="1.1" id="Camada_1" x="0px" y="0px" viewBox="0 0 200 200" style="enable-background:new 0 0 200 200;" xml:space="preserve"> <style type="text/css"> .st0{fill:#044F9E;} .st1{fill:#E30613;} .st2{fill:#0D4F9E;} .st3{fill:#FFFFFF;} .st4{fill:#B42026;} .st5{fill:#421613;} .st6{fill:#FFD30F;} .st7{fill:#020203;} .st8{fill:#4887C7;} .st9{clip-path:url(#SVGID_2_);fill:#1867A7;} .st10{fill:#1867A7;} .st11{fill:#231F20;} .st12{fill:#EDAD0B;} .st13{fill-rule:evenodd;clip-rule:evenodd;fill:#231F20;} .st14{fill:#1683C4;} .st15{fill:#9E1925;} .st16{fill:#1C3257;} </style> <g> <path id="path7-1" class="st0" d="M57.7,149c-1.9,0-3.2,0.9-3.2,2.7c0,1.7,1.2,2.8,2.9,2.8c1.2,0,2.4-0.7,3.1-1.6v-2.4 C60.5,149.8,59.5,149,57.7,149 M97.7,148.7c0.1,3.1,2.1,5.4,5.5,5.4c2.1,0,3.7-1.1,4.2-1.8c0.3,0.2,0.5,0.5,0.5,1.2 c0,1.6-1.9,3.7-6.3,3.7c-4.4,0-8-3.5-8-8.1c0-5.1,3.3-8.7,8.2-8.7c4.5,0,6.5,3.3,6.5,6.1c0,0.8-0.2,1.6-0.5,2.2L97.7,148.7 L97.7,148.7z M103.9,146.6c0.7,0,0.7-0.4,0.7-1c0-1.6-1.3-3.2-3.3-3.2c-2.6,0-3.6,2.1-3.6,4.1L103.9,146.6L103.9,146.6z M145.4,148.4c0,3.8,0.5,5.8,3,5.8c2.7,0,3.4-2.4,3.4-4.6v-4.2c0-1.4-0.7-2-2.2-1.8c-0.6-1.6,1.5-2.6,2.7-2.9 c0.4-0.1,0.7-0.1,1.1-0.1c1.7,0,2.4,1.1,2.4,2.6c0,0.6-0.1,1.6-0.1,6c0,1.9,0,2.8,0,3.1c0,1.4,0.7,2.2,2.2,2 c0.6,1.6-1.5,2.4-2.7,2.6c-0.4,0.1-0.7,0.1-1,0.1c-1.6,0-1.9-1-2.3-2.6c-0.2,0.3-0.4,0.5-0.9,0.9c-1.1,1-2.4,1.6-4,1.6 c-1.7,0-3.1-0.7-4.1-1.7c-1.4-1.7-1.4-3.8-1.4-7v-3c0-1.4-0.7-2-2.2-1.8c-0.6-1.6,1.5-2.6,2.7-2.9c0.4-0.1,0.7-0.1,1.1-0.1 c1.7,0,2.4,1.1,2.4,2.6L145.4,148.4L145.4,148.4z M137.9,148.7c0-5-3.4-8.3-8.2-8.3c-4.4,0-8.3,3.4-8.3,8.3c0,5,3.7,8.4,8.2,8.4 C134.4,157.1,137.9,153.7,137.9,148.7 M64.2,153.1c0,1.3,0.8,1.7,2.3,1.9c-0.1,1.5-1.1,2-2.3,2.2c-1.4,0.1-2.7-0.5-3.2-1.9 c-0.6,0.6-2.4,2-4.8,2c-3.3,0-5.7-2.2-5.7-5.2c0-3.1,2.7-5,6.6-5c1.3,0,2.7,0.3,3.5,0.7v-2.1c0-1.9-0.8-3.1-3-3.1 c-0.4,0-1.4,0.1-2.2,0.4c0.1,0.3,0.1,0.6,0.1,0.9c0,1.2-0.7,2.1-2,2.1c-1.1,0-1.9-0.9-1.9-2c0-2.1,2.6-3.6,6.2-3.6 c2.9,0,4.6,0.7,5.5,1.8c0.8,1,0.9,2.6,0.9,4.9V153.1L64.2,153.1z M133.7,148.9c0,3.8-1.6,5.9-4,5.9c-2.1,0-4.1-2.1-4.1-6.6 c0-3.5,1.5-5.7,3.9-5.7C132,142.5,133.7,144.9,133.7,148.9 M75.8,143.1c0.1,1,0.9,1.7,1.9,1.7c1.3,0,2-1.1,2-2.2 c0-1.5-1.2-2.3-2.5-2.3c-1.4,0-2.9,1.1-3.8,2.6l-0.1,0c-0.3-1.4-0.9-2.5-2.4-2.5c-0.3,0-0.7,0.1-1.1,0.2c-1.2,0.4-2.9,1.3-2.3,2.9 c1.6-0.3,2.2,0.2,2.2,1.7v6.8c0,1.4-0.2,1.9-0.6,2.3c-0.4,0.3-0.9,0.5-1.2,0.5c-0.7,1.5,0.6,1.9,3.9,1.9c3.3,0,4.4-0.5,3.7-1.9 c-0.3-0.1-1.1-0.2-1.6-0.5c-0.5-0.4-0.7-1-0.7-2.3V148C73.6,144.3,74.9,143.3,75.8,143.1 M116.3,140.8h4.2c0.5,1.2-0.2,2.2-1.1,2.3 c-0.3,0-0.6,0-0.9,0c-0.8,0-1.5-0.1-2.1-0.1v9.1c0,1.4,0.2,1.9,0.7,2.3c0.4,0.3,1.5,0.5,1.8,0.5c0.7,1.5-0.9,1.9-4.2,1.9 c-3.3,0-4.6-0.5-3.9-1.9c0.3-0.1,0.8-0.2,1.2-0.5c0.5-0.4,0.6-1,0.6-2.3v-9.2l-2.5-0.1c-0.5-1.2,0.2-2.1,1.2-2.1h1.2v-1.2 c0-2.4,0.4-3.7,1-4.6c0.9-1.4,2.5-2.4,4.9-2.4c3.1,0,5.6,1.4,5.6,3.6c0,0.9-0.6,2.1-2,2.1c-1,0-1.9-0.9-1.9-1.9 c0-0.4,0.2-0.9,0.4-1.2c-0.4-0.4-1.1-0.6-1.8-0.6c-2,0-2.5,1.5-2.5,3.4L116.3,140.8L116.3,140.8z M89.2,143.1 c0.1,1,0.9,1.7,1.9,1.7c1.3,0,2-1.1,2-2.2c0-1.5-1.2-2.3-2.5-2.3c-1.4,0-2.9,1.1-3.8,2.6l-0.1,0c-0.3-1.4-0.9-2.5-2.4-2.5 c-0.3,0-0.7,0.1-1.1,0.2c-1.2,0.4-2.9,1.3-2.3,2.9c1.6-0.3,2.2,0.2,2.2,1.7v6.8c0,1.4-0.2,1.9-0.6,2.3c-0.4,0.3-0.9,0.5-1.2,0.5 c-0.7,1.5,0.6,1.9,3.9,1.9c3.3,0,4.4-0.5,3.7-1.9c-0.3-0.1-1.1-0.2-1.6-0.5c-0.5-0.4-0.7-1-0.7-2.3V148 C87,144.3,88.3,143.3,89.2,143.1 M167.4,143.1c0.1,1,1,1.7,2,1.7c1.2,0,2-1.1,2-2.2c0-1.5-1.2-2.3-2.5-2.3c-1.4,0-2.9,1.1-3.7,2.6 l-0.1,0c-0.3-1.4-0.9-2.5-2.3-2.5c-0.3,0-0.7,0.1-1.1,0.2c-1.2,0.4-2.9,1.3-2.3,2.9c1.7-0.3,2.2,0.2,2.2,1.7v6.8 c0,1.4-0.2,1.9-0.7,2.3c-0.4,0.3-0.9,0.5-1.2,0.5c-0.7,1.5,0.7,1.9,3.9,1.9c3.3,0,4.4-0.5,3.7-1.9c-0.3-0.1-1.1-0.2-1.6-0.5 c-0.4-0.4-0.6-1-0.6-2.3V148C165.2,144.3,166.5,143.3,167.4,143.1"></path> <path id="path11-4" class="st0" d="M28.6,145.4c0,7.4,5.1,11.8,10.7,11.8c5,0,8.5-3.5,8.5-6.4c0-1.6-1-2.7-2.2-2.7 c-1.3,0-2.4,0.9-2.4,2.4c0,1,0.5,1.5,0.9,1.9c-0.7,1.3-2.1,2.4-4.4,2.4c-3.7,0-6.4-3.9-6.4-9.4c0-5.6,2.6-9.4,6.3-9.4 c2.2,0,3.7,1.1,4.3,2.4c-0.4,0.4-0.9,1-0.9,1.9c0,1.5,1.1,2.4,2.4,2.4c1.3,0,2.2-1.1,2.2-2.7c0-2.9-3.5-6.4-8.5-6.4 C33.6,133.5,28.6,138.4,28.6,145.4"></path> <path id="path15-9" class="st1" d="M76.8,45.3L45.6,75.5C44,76.8,43,78.3,43,80.6c0,2.2,1,3.8,2.6,5.1l31.2,30.2 c0.2,0.2,0.4,0.3,0.6,0.3c0.3,0,0.5-0.3,0.5-0.6c0-0.2-0.1-0.4-0.3-0.6c-7.3-9.1-12.6-19.5-12.6-34.3c0-14.8,5.3-25.4,12.6-34.5 c0.2-0.2,0.3-0.4,0.3-0.6c0-0.3-0.2-0.6-0.5-0.6C77.2,45,77,45.1,76.8,45.3"></path> <path id="path17-4" class="st0" d="M100.7,42.7c-12.2,0-17,17.3-17,37.9c0,20.6,4.8,37.7,17,37.7c7.3,0,13.6-4.3,13.6-7.8 c0-0.8-0.3-1.5-0.9-2.2c-3.5-3.4-4.8-6.7-4.8-9.7c0-5.6,4.9-9.9,9.4-9.9c6.2,0,9.9,4.9,9.9,11.2c0,6-2.6,11-5.3,15 c-0.1,0.2-0.2,0.3-0.2,0.5c0,0.3,0.2,0.6,0.5,0.6c0.2,0,0.4-0.1,0.6-0.3l31.2-30.2c1.6-1.3,2.6-2.9,2.6-5.1c0-2.2-1-3.8-2.6-5.1 l-31.2-30.2c-0.2-0.2-0.4-0.3-0.6-0.3c-0.3,0-0.5,0.3-0.5,0.6c0,0.2,0,0.3,0.2,0.5c2.8,4,5.3,9,5.3,15c0,6.3-3.7,11.2-9.9,11.2 c-4.5,0-9.4-4.2-9.4-9.9c0-3,1.4-6.3,4.8-9.7c0.6-0.6,0.9-1.4,0.9-2.2C114.3,47,108.1,42.7,100.7,42.7"></path> </g> </svg> 