<?xml version="1.0" encoding="UTF-8"?> <svg xmlns="http://www.w3.org/2000/svg" width="430" height="91" viewBox="0 0 430 91" fill="none"><g clip-path="url(#clip0)"><path d="M0.000125885 16.4451H23.9412V90.9976H40.4089V16.4451H64.3503V0.0358887H0.00816677L0.000125885 16.4451Z" fill="white"></path><path d="M137.667 74.5964H97.2667V53.7211H134.676V37.3119H97.2667V16.4367H136.172V0.0274658H79.3087V90.9809H137.667V74.5964Z" fill="white"></path><path d="M175.074 91H191.542V16.4476H215.483V0.0383911H151.138V16.4476H175.08L175.074 91Z" fill="white"></path><path d="M291.795 91V59.6858C291.771 56.9149 290.703 54.254 288.803 52.2305C286.912 49.9118 284.264 48.3284 281.321 47.7563V46.2658C285.048 44.8196 288.199 42.2023 290.299 38.8106C292.253 35.6778 293.289 32.063 293.29 28.3743V25.3933C293.436 21.8527 292.929 18.3154 291.795 14.957C290.34 12.085 288.301 9.54608 285.809 7.50182C283.254 4.9257 280.2 2.89605 276.831 1.53707C272.96 0.339437 268.906 -0.165235 264.859 0.046535H230.441V91H246.909V56.7048H267.859C270.354 56.7048 271.27 56.9099 272.346 58.1953C272.881 58.8045 273.289 59.5141 273.546 60.2823C273.803 61.0506 273.904 61.8622 273.842 62.6696V91H291.795ZM273.839 37.3228C270.779 39.452 267.093 40.5012 263.366 40.3038H246.898V16.4476H263.366C267.106 16.127 270.834 17.188 273.839 19.4286C274.837 20.3908 275.62 21.5524 276.135 22.8373C276.651 24.1222 276.888 25.5012 276.831 26.8838V28.3743C276.957 29.9891 276.757 31.6127 276.242 33.1491C275.728 34.6856 274.91 36.1038 273.836 37.32L273.839 37.3228Z" fill="white"></path><path d="M323.865 0.0437622H307.398V90.2944H323.865V0.0437622Z" fill="white"></path><path d="M384.896 33.7143L373.502 45.0679L384.896 56.4215L396.29 45.0679L384.896 33.7143Z" fill="white"></path><path d="M351.136 0.0436073L339.793 11.3469L367.743 39.1981L379.087 27.8948L351.136 0.0436073Z" fill="white"></path><path d="M418.656 0.0444738L390.705 27.8957L402.049 39.199L429.999 11.3478L418.656 0.0444738Z" fill="white"></path><path d="M402.049 50.9368L390.705 62.2401L418.656 90.0913L429.999 78.788L402.049 50.9368Z" fill="white"></path><path d="M367.743 50.9376L339.793 78.7888L351.136 90.0921L379.087 62.2409L367.743 50.9376Z" fill="white"></path></g><defs><clipPath id="clip0"><rect width="430" height="91" fill="white"></rect></clipPath></defs></svg> 